<mxfile host="Electron" agent="Mozilla/5.0 (X11; Linux x86_64) AppleWebKit/537.36 (KHTML, like Gecko) draw.io/26.0.4 Chrome/128.0.6613.186 Electron/32.2.5 Safari/537.36" version="26.0.4">
  <diagram name="Page-1" id="trLHiYkPKxIzb2HBjUCv">
    <mxGraphModel dx="1114" dy="1198" grid="1" gridSize="10" guides="1" tooltips="1" connect="1" arrows="1" fold="1" page="1" pageScale="1" pageWidth="850" pageHeight="1100" math="0" shadow="0">
      <root>
        <mxCell id="0" />
        <mxCell id="1" parent="0" />
        <mxCell id="i9ipL9b6k7-XoBzAM1ZY-2" value="VPC" style="points=[[0,0],[0.25,0],[0.5,0],[0.75,0],[1,0],[1,0.25],[1,0.5],[1,0.75],[1,1],[0.75,1],[0.5,1],[0.25,1],[0,1],[0,0.75],[0,0.5],[0,0.25]];outlineConnect=0;gradientColor=none;html=1;whiteSpace=wrap;fontSize=12;fontStyle=0;container=1;pointerEvents=0;collapsible=0;recursiveResize=0;shape=mxgraph.aws4.group;grIcon=mxgraph.aws4.group_vpc2;strokeColor=#8C4FFF;fillColor=none;verticalAlign=top;align=left;spacingLeft=30;fontColor=#AAB7B8;dashed=0;" vertex="1" parent="1">
          <mxGeometry x="280" y="400" width="550" height="280" as="geometry" />
        </mxCell>
        <mxCell id="i9ipL9b6k7-XoBzAM1ZY-3" value="Public subnet" style="points=[[0,0],[0.25,0],[0.5,0],[0.75,0],[1,0],[1,0.25],[1,0.5],[1,0.75],[1,1],[0.75,1],[0.5,1],[0.25,1],[0,1],[0,0.75],[0,0.5],[0,0.25]];outlineConnect=0;gradientColor=none;html=1;whiteSpace=wrap;fontSize=12;fontStyle=0;container=1;pointerEvents=0;collapsible=0;recursiveResize=0;shape=mxgraph.aws4.group;grIcon=mxgraph.aws4.group_security_group;grStroke=0;strokeColor=#7AA116;fillColor=#F2F6E8;verticalAlign=top;align=left;spacingLeft=30;fontColor=#248814;dashed=0;" vertex="1" parent="i9ipL9b6k7-XoBzAM1ZY-2">
          <mxGeometry x="50" y="30" width="260" height="230" as="geometry" />
        </mxCell>
        <mxCell id="i9ipL9b6k7-XoBzAM1ZY-4" value="&lt;b&gt;ALB&lt;/b&gt; Security Group" style="fillColor=none;strokeColor=#DD3522;verticalAlign=top;fontStyle=0;fontColor=#DD3522;whiteSpace=wrap;html=1;" vertex="1" parent="i9ipL9b6k7-XoBzAM1ZY-3">
          <mxGeometry x="67.5" y="30" width="175" height="180" as="geometry" />
        </mxCell>
        <mxCell id="i9ipL9b6k7-XoBzAM1ZY-5" value="&lt;b&gt;NACL&lt;/b&gt;" style="sketch=0;outlineConnect=0;fontColor=#232F3E;gradientColor=none;fillColor=#8C4FFF;strokeColor=none;dashed=0;verticalLabelPosition=bottom;verticalAlign=top;align=center;html=1;fontSize=12;fontStyle=0;aspect=fixed;pointerEvents=1;shape=mxgraph.aws4.network_access_control_list;" vertex="1" parent="i9ipL9b6k7-XoBzAM1ZY-3">
          <mxGeometry x="-40" y="76" width="78" height="78" as="geometry" />
        </mxCell>
        <mxCell id="i9ipL9b6k7-XoBzAM1ZY-6" value="Application Load Balancer" style="sketch=0;outlineConnect=0;fontColor=#232F3E;gradientColor=none;fillColor=#8C4FFF;strokeColor=none;dashed=0;verticalLabelPosition=bottom;verticalAlign=top;align=center;html=1;fontSize=12;fontStyle=0;aspect=fixed;pointerEvents=1;shape=mxgraph.aws4.application_load_balancer;labelPosition=center;" vertex="1" parent="i9ipL9b6k7-XoBzAM1ZY-3">
          <mxGeometry x="116" y="76" width="78" height="78" as="geometry" />
        </mxCell>
        <mxCell id="i9ipL9b6k7-XoBzAM1ZY-7" style="edgeStyle=orthogonalEdgeStyle;rounded=0;orthogonalLoop=1;jettySize=auto;html=1;" edge="1" parent="i9ipL9b6k7-XoBzAM1ZY-3" source="i9ipL9b6k7-XoBzAM1ZY-5" target="i9ipL9b6k7-XoBzAM1ZY-6">
          <mxGeometry relative="1" as="geometry">
            <mxPoint x="170" y="115" as="targetPoint" />
          </mxGeometry>
        </mxCell>
        <mxCell id="i9ipL9b6k7-XoBzAM1ZY-8" value="Private subnet" style="points=[[0,0],[0.25,0],[0.5,0],[0.75,0],[1,0],[1,0.25],[1,0.5],[1,0.75],[1,1],[0.75,1],[0.5,1],[0.25,1],[0,1],[0,0.75],[0,0.5],[0,0.25]];outlineConnect=0;gradientColor=none;html=1;whiteSpace=wrap;fontSize=12;fontStyle=0;container=1;pointerEvents=0;collapsible=0;recursiveResize=0;shape=mxgraph.aws4.group;grIcon=mxgraph.aws4.group_security_group;grStroke=0;strokeColor=#00A4A6;fillColor=#E6F6F7;verticalAlign=top;align=left;spacingLeft=30;fontColor=#147EBA;dashed=0;" vertex="1" parent="i9ipL9b6k7-XoBzAM1ZY-2">
          <mxGeometry x="330" y="30" width="210" height="230" as="geometry" />
        </mxCell>
        <mxCell id="i9ipL9b6k7-XoBzAM1ZY-9" value="&lt;b&gt;EC2&lt;/b&gt; Security Group" style="fillColor=none;strokeColor=#DD3522;verticalAlign=top;fontStyle=0;fontColor=#DD3522;whiteSpace=wrap;html=1;" vertex="1" parent="i9ipL9b6k7-XoBzAM1ZY-8">
          <mxGeometry x="20" y="30" width="170" height="180" as="geometry" />
        </mxCell>
        <mxCell id="i9ipL9b6k7-XoBzAM1ZY-10" value="EC2 Instance&lt;div&gt;Private IP&lt;br&gt;&lt;/div&gt;" style="sketch=0;outlineConnect=0;fontColor=#232F3E;gradientColor=none;fillColor=#ED7100;strokeColor=none;dashed=0;verticalLabelPosition=bottom;verticalAlign=top;align=center;html=1;fontSize=12;fontStyle=0;aspect=fixed;pointerEvents=1;shape=mxgraph.aws4.instance2;direction=south;" vertex="1" parent="i9ipL9b6k7-XoBzAM1ZY-8">
          <mxGeometry x="65" y="75" width="80" height="80" as="geometry" />
        </mxCell>
        <mxCell id="i9ipL9b6k7-XoBzAM1ZY-11" style="edgeStyle=orthogonalEdgeStyle;rounded=0;orthogonalLoop=1;jettySize=auto;html=1;" edge="1" parent="i9ipL9b6k7-XoBzAM1ZY-2" source="i9ipL9b6k7-XoBzAM1ZY-6" target="i9ipL9b6k7-XoBzAM1ZY-10">
          <mxGeometry relative="1" as="geometry" />
        </mxCell>
        <mxCell id="i9ipL9b6k7-XoBzAM1ZY-17" style="edgeStyle=orthogonalEdgeStyle;rounded=0;orthogonalLoop=1;jettySize=auto;html=1;" edge="1" parent="1" source="i9ipL9b6k7-XoBzAM1ZY-13" target="i9ipL9b6k7-XoBzAM1ZY-16">
          <mxGeometry relative="1" as="geometry" />
        </mxCell>
        <mxCell id="i9ipL9b6k7-XoBzAM1ZY-13" value="Client" style="sketch=0;outlineConnect=0;fontColor=#232F3E;gradientColor=none;fillColor=#232F3D;strokeColor=none;dashed=0;verticalLabelPosition=top;verticalAlign=bottom;align=center;html=1;fontSize=12;fontStyle=0;aspect=fixed;pointerEvents=1;shape=mxgraph.aws4.client;labelPosition=center;" vertex="1" parent="1">
          <mxGeometry x="110" y="290" width="78" height="76" as="geometry" />
        </mxCell>
        <mxCell id="i9ipL9b6k7-XoBzAM1ZY-19" style="edgeStyle=orthogonalEdgeStyle;rounded=0;orthogonalLoop=1;jettySize=auto;html=1;" edge="1" parent="1" source="i9ipL9b6k7-XoBzAM1ZY-14" target="i9ipL9b6k7-XoBzAM1ZY-16">
          <mxGeometry relative="1" as="geometry" />
        </mxCell>
        <mxCell id="i9ipL9b6k7-XoBzAM1ZY-14" value="AWS WAF" style="sketch=0;points=[[0,0,0],[0.25,0,0],[0.5,0,0],[0.75,0,0],[1,0,0],[0,1,0],[0.25,1,0],[0.5,1,0],[0.75,1,0],[1,1,0],[0,0.25,0],[0,0.5,0],[0,0.75,0],[1,0.25,0],[1,0.5,0],[1,0.75,0]];outlineConnect=0;fontColor=#232F3E;fillColor=#DD344C;strokeColor=#ffffff;dashed=0;verticalLabelPosition=bottom;verticalAlign=top;align=center;html=1;fontSize=12;fontStyle=0;aspect=fixed;shape=mxgraph.aws4.resourceIcon;resIcon=mxgraph.aws4.waf;" vertex="1" parent="1">
          <mxGeometry x="110" y="720" width="78" height="78" as="geometry" />
        </mxCell>
        <mxCell id="i9ipL9b6k7-XoBzAM1ZY-18" value="CloudFront&lt;br&gt;Public IPs" style="edgeStyle=orthogonalEdgeStyle;rounded=0;orthogonalLoop=1;jettySize=auto;html=1;" edge="1" parent="1" source="i9ipL9b6k7-XoBzAM1ZY-16" target="i9ipL9b6k7-XoBzAM1ZY-5">
          <mxGeometry relative="1" as="geometry" />
        </mxCell>
        <mxCell id="i9ipL9b6k7-XoBzAM1ZY-16" value="CloudFront&lt;div&gt;(Geo Restriction)&lt;/div&gt;" style="sketch=0;points=[[0,0,0],[0.25,0,0],[0.5,0,0],[0.75,0,0],[1,0,0],[0,1,0],[0.25,1,0],[0.5,1,0],[0.75,1,0],[1,1,0],[0,0.25,0],[0,0.5,0],[0,0.75,0],[1,0.25,0],[1,0.5,0],[1,0.75,0]];outlineConnect=0;fontColor=#232F3E;fillColor=#8C4FFF;strokeColor=#ffffff;dashed=0;verticalLabelPosition=middle;verticalAlign=middle;align=right;html=1;fontSize=12;fontStyle=0;aspect=fixed;shape=mxgraph.aws4.resourceIcon;resIcon=mxgraph.aws4.cloudfront;labelPosition=left;spacingLeft=0;spacingRight=5;" vertex="1" parent="1">
          <mxGeometry x="110" y="506" width="78" height="78" as="geometry" />
        </mxCell>
      </root>
    </mxGraphModel>
  </diagram>
</mxfile>
